G04 #@! TF.GenerationSoftware,KiCad,Pcbnew,9.0.4*
G04 #@! TF.CreationDate,2025-10-07T20:43:45-04:00*
G04 #@! TF.ProjectId,Lab1_pcb,4c616231-5f70-4636-922e-6b696361645f,rev?*
G04 #@! TF.SameCoordinates,Original*
G04 #@! TF.FileFunction,Copper,L2,Bot*
G04 #@! TF.FilePolarity,Positive*
%FSLAX46Y46*%
G04 Gerber Fmt 4.6, Leading zero omitted, Abs format (unit mm)*
G04 Created by KiCad (PCBNEW 9.0.4) date 2025-10-07 20:43:45*
%MOMM*%
%LPD*%
G01*
G04 APERTURE LIST*
G04 Aperture macros list*
%AMRoundRect*
0 Rectangle with rounded corners*
0 $1 Rounding radius*
0 $2 $3 $4 $5 $6 $7 $8 $9 X,Y pos of 4 corners*
0 Add a 4 corners polygon primitive as box body*
4,1,4,$2,$3,$4,$5,$6,$7,$8,$9,$2,$3,0*
0 Add four circle primitives for the rounded corners*
1,1,$1+$1,$2,$3*
1,1,$1+$1,$4,$5*
1,1,$1+$1,$6,$7*
1,1,$1+$1,$8,$9*
0 Add four rect primitives between the rounded corners*
20,1,$1+$1,$2,$3,$4,$5,0*
20,1,$1+$1,$4,$5,$6,$7,0*
20,1,$1+$1,$6,$7,$8,$9,0*
20,1,$1+$1,$8,$9,$2,$3,0*%
G04 Aperture macros list end*
G04 #@! TA.AperFunction,ComponentPad*
%ADD10C,1.500000*%
G04 #@! TD*
G04 #@! TA.AperFunction,ComponentPad*
%ADD11C,1.600000*%
G04 #@! TD*
G04 #@! TA.AperFunction,ComponentPad*
%ADD12C,2.000000*%
G04 #@! TD*
G04 #@! TA.AperFunction,ComponentPad*
%ADD13RoundRect,0.250000X-0.550000X-0.550000X0.550000X-0.550000X0.550000X0.550000X-0.550000X0.550000X0*%
G04 #@! TD*
G04 #@! TA.AperFunction,Conductor*
%ADD14C,0.200000*%
G04 #@! TD*
G04 APERTURE END LIST*
D10*
X181000000Y-100320000D03*
D11*
X159420000Y-110550000D03*
X159420000Y-97850000D03*
D12*
X146920000Y-102200000D03*
X151920000Y-102200000D03*
D13*
X167615000Y-108390000D03*
D11*
X167615000Y-110930000D03*
X167615000Y-113470000D03*
X167615000Y-116010000D03*
X175235000Y-116010000D03*
X175235000Y-113470000D03*
X175235000Y-110930000D03*
X175235000Y-108390000D03*
D10*
X156000000Y-116000000D03*
X129000000Y-100000000D03*
D12*
X132420000Y-112700000D03*
X132420000Y-117700000D03*
D11*
X152770000Y-112200000D03*
X140070000Y-112200000D03*
X177770000Y-100200000D03*
X165070000Y-100200000D03*
X141770000Y-105200000D03*
X129070000Y-105200000D03*
D14*
X156000000Y-116000000D02*
X156000000Y-106280000D01*
X156000000Y-106280000D02*
X151920000Y-102200000D01*
X171005000Y-117700000D02*
X175235000Y-113470000D01*
X132420000Y-117700000D02*
X171005000Y-117700000D01*
X165070000Y-107180000D02*
X161700000Y-110550000D01*
X161700000Y-110550000D02*
X159420000Y-110550000D01*
X165070000Y-100200000D02*
X165070000Y-107180000D01*
G04 #@! TA.AperFunction,Conductor*
G36*
X183862539Y-95720185D02*
G01*
X183908294Y-95772989D01*
X183919500Y-95824500D01*
X183919500Y-119575500D01*
X183899815Y-119642539D01*
X183847011Y-119688294D01*
X183795500Y-119699500D01*
X125044500Y-119699500D01*
X124977461Y-119679815D01*
X124931706Y-119627011D01*
X124920500Y-119575500D01*
X124920500Y-117581902D01*
X130919500Y-117581902D01*
X130919500Y-117818097D01*
X130956446Y-118051368D01*
X131029433Y-118275996D01*
X131136657Y-118486433D01*
X131275483Y-118677510D01*
X131442490Y-118844517D01*
X131633567Y-118983343D01*
X131732991Y-119034002D01*
X131844003Y-119090566D01*
X131844005Y-119090566D01*
X131844008Y-119090568D01*
X131964412Y-119129689D01*
X132068631Y-119163553D01*
X132301903Y-119200500D01*
X132301908Y-119200500D01*
X132538097Y-119200500D01*
X132771368Y-119163553D01*
X132995992Y-119090568D01*
X133206433Y-118983343D01*
X133397510Y-118844517D01*
X133564517Y-118677510D01*
X133703343Y-118486433D01*
X133763583Y-118368204D01*
X133811558Y-118317409D01*
X133874068Y-118300500D01*
X170918331Y-118300500D01*
X170918347Y-118300501D01*
X170925943Y-118300501D01*
X171084054Y-118300501D01*
X171084057Y-118300501D01*
X171236785Y-118259577D01*
X171286904Y-118230639D01*
X171373716Y-118180520D01*
X171485520Y-118068716D01*
X171485520Y-118068714D01*
X171495728Y-118058507D01*
X171495730Y-118058504D01*
X173722819Y-115831415D01*
X173784142Y-115797930D01*
X173853834Y-115802914D01*
X173909767Y-115844786D01*
X173934184Y-115910250D01*
X173934500Y-115919096D01*
X173934500Y-116112351D01*
X173966522Y-116314534D01*
X174029781Y-116509223D01*
X174093691Y-116634653D01*
X174121956Y-116690125D01*
X174122715Y-116691613D01*
X174243028Y-116857213D01*
X174387786Y-117001971D01*
X174518125Y-117096666D01*
X174553390Y-117122287D01*
X174669607Y-117181503D01*
X174735776Y-117215218D01*
X174735778Y-117215218D01*
X174735781Y-117215220D01*
X174840137Y-117249127D01*
X174930465Y-117278477D01*
X175031557Y-117294488D01*
X175132648Y-117310500D01*
X175132649Y-117310500D01*
X175337351Y-117310500D01*
X175337352Y-117310500D01*
X175539534Y-117278477D01*
X175734219Y-117215220D01*
X175916610Y-117122287D01*
X176041163Y-117031795D01*
X176082213Y-117001971D01*
X176082215Y-117001968D01*
X176082219Y-117001966D01*
X176226966Y-116857219D01*
X176226968Y-116857215D01*
X176226971Y-116857213D01*
X176279732Y-116784590D01*
X176347287Y-116691610D01*
X176440220Y-116509219D01*
X176503477Y-116314534D01*
X176535500Y-116112352D01*
X176535500Y-115907648D01*
X176528730Y-115864905D01*
X176503477Y-115705465D01*
X176446801Y-115531036D01*
X176440220Y-115510781D01*
X176440218Y-115510778D01*
X176440218Y-115510776D01*
X176355678Y-115344859D01*
X176347287Y-115328390D01*
X176333833Y-115309872D01*
X176226971Y-115162786D01*
X176082213Y-115018028D01*
X175916614Y-114897715D01*
X175910006Y-114894348D01*
X175823917Y-114850483D01*
X175773123Y-114802511D01*
X175756328Y-114734690D01*
X175778865Y-114668555D01*
X175823917Y-114629516D01*
X175916610Y-114582287D01*
X175937770Y-114566913D01*
X176082213Y-114461971D01*
X176082215Y-114461968D01*
X176082219Y-114461966D01*
X176226966Y-114317219D01*
X176226968Y-114317215D01*
X176226971Y-114317213D01*
X176279732Y-114244590D01*
X176347287Y-114151610D01*
X176440220Y-113969219D01*
X176503477Y-113774534D01*
X176535500Y-113572352D01*
X176535500Y-113367648D01*
X176503477Y-113165466D01*
X176440220Y-112970781D01*
X176440218Y-112970778D01*
X176440218Y-112970776D01*
X176406503Y-112904607D01*
X176347287Y-112788390D01*
X176339556Y-112777749D01*
X176226971Y-112622786D01*
X176082213Y-112478028D01*
X175916614Y-112357715D01*
X175910006Y-112354348D01*
X175823917Y-112310483D01*
X175773123Y-112262511D01*
X175756328Y-112194690D01*
X175778865Y-112128555D01*
X175823917Y-112089516D01*
X175916610Y-112042287D01*
X175937770Y-112026913D01*
X176082213Y-111921971D01*
X176082215Y-111921968D01*
X176082219Y-111921966D01*
X176226966Y-111777219D01*
X176226968Y-111777215D01*
X176226971Y-111777213D01*
X176310470Y-111662284D01*
X176347287Y-111611610D01*
X176440220Y-111429219D01*
X176503477Y-111234534D01*
X176535500Y-111032352D01*
X176535500Y-110827648D01*
X176503477Y-110625465D01*
X176440218Y-110430776D01*
X176406503Y-110364607D01*
X176347287Y-110248390D01*
X176339556Y-110237749D01*
X176226971Y-110082786D01*
X176082213Y-109938028D01*
X175916614Y-109817715D01*
X175910006Y-109814348D01*
X175823917Y-109770483D01*
X175773123Y-109722511D01*
X175756328Y-109654690D01*
X175778865Y-109588555D01*
X175823917Y-109549516D01*
X175916610Y-109502287D01*
X175937770Y-109486913D01*
X176082213Y-109381971D01*
X176082215Y-109381968D01*
X176082219Y-109381966D01*
X176226966Y-109237219D01*
X176226968Y-109237215D01*
X176226971Y-109237213D01*
X176331892Y-109092799D01*
X176347287Y-109071610D01*
X176440220Y-108889219D01*
X176503477Y-108694534D01*
X176535500Y-108492352D01*
X176535500Y-108287648D01*
X176503477Y-108085466D01*
X176440220Y-107890781D01*
X176440218Y-107890778D01*
X176440218Y-107890776D01*
X176388865Y-107789991D01*
X176347287Y-107708390D01*
X176331892Y-107687200D01*
X176226971Y-107542786D01*
X176082213Y-107398028D01*
X175916613Y-107277715D01*
X175916612Y-107277714D01*
X175916610Y-107277713D01*
X175856898Y-107247288D01*
X175734223Y-107184781D01*
X175539534Y-107121522D01*
X175364995Y-107093878D01*
X175337352Y-107089500D01*
X175132648Y-107089500D01*
X175108473Y-107093329D01*
X174930465Y-107121522D01*
X174735776Y-107184781D01*
X174553386Y-107277715D01*
X174387786Y-107398028D01*
X174243028Y-107542786D01*
X174122715Y-107708386D01*
X174029781Y-107890776D01*
X173966522Y-108085465D01*
X173934500Y-108287648D01*
X173934500Y-108492351D01*
X173966522Y-108694534D01*
X174029781Y-108889223D01*
X174122715Y-109071613D01*
X174243028Y-109237213D01*
X174387786Y-109381971D01*
X174542749Y-109494556D01*
X174553390Y-109502287D01*
X174644840Y-109548883D01*
X174646080Y-109549515D01*
X174696876Y-109597490D01*
X174713671Y-109665311D01*
X174691134Y-109731446D01*
X174646080Y-109770485D01*
X174553386Y-109817715D01*
X174387786Y-109938028D01*
X174243028Y-110082786D01*
X174122715Y-110248386D01*
X174029781Y-110430776D01*
X173966522Y-110625465D01*
X173934500Y-110827648D01*
X173934500Y-111032351D01*
X173966522Y-111234534D01*
X174029781Y-111429223D01*
X174122715Y-111611613D01*
X174243028Y-111777213D01*
X174387786Y-111921971D01*
X174542749Y-112034556D01*
X174553390Y-112042287D01*
X174644840Y-112088883D01*
X174646080Y-112089515D01*
X174696876Y-112137490D01*
X174713671Y-112205311D01*
X174691134Y-112271446D01*
X174646080Y-112310485D01*
X174553386Y-112357715D01*
X174387786Y-112478028D01*
X174243028Y-112622786D01*
X174122715Y-112788386D01*
X174029781Y-112970776D01*
X173966522Y-113165465D01*
X173934500Y-113367648D01*
X173934500Y-113572351D01*
X173966522Y-113774534D01*
X173971173Y-113788848D01*
X173973165Y-113858690D01*
X173940921Y-113914842D01*
X170792584Y-117063181D01*
X170731261Y-117096666D01*
X170704903Y-117099500D01*
X168664047Y-117099500D01*
X168597008Y-117079815D01*
X168551253Y-117027011D01*
X168541309Y-116957853D01*
X168570334Y-116894297D01*
X168576366Y-116887819D01*
X168606966Y-116857219D01*
X168606968Y-116857215D01*
X168606971Y-116857213D01*
X168659732Y-116784590D01*
X168727287Y-116691610D01*
X168820220Y-116509219D01*
X168883477Y-116314534D01*
X168915500Y-116112352D01*
X168915500Y-115907648D01*
X168908730Y-115864905D01*
X168883477Y-115705465D01*
X168826801Y-115531036D01*
X168820220Y-115510781D01*
X168820218Y-115510778D01*
X168820218Y-115510776D01*
X168735678Y-115344859D01*
X168727287Y-115328390D01*
X168713833Y-115309872D01*
X168606971Y-115162786D01*
X168462213Y-115018028D01*
X168296614Y-114897715D01*
X168290006Y-114894348D01*
X168203917Y-114850483D01*
X168153123Y-114802511D01*
X168136328Y-114734690D01*
X168158865Y-114668555D01*
X168203917Y-114629516D01*
X168296610Y-114582287D01*
X168317770Y-114566913D01*
X168462213Y-114461971D01*
X168462215Y-114461968D01*
X168462219Y-114461966D01*
X168606966Y-114317219D01*
X168606968Y-114317215D01*
X168606971Y-114317213D01*
X168659732Y-114244590D01*
X168727287Y-114151610D01*
X168820220Y-113969219D01*
X168883477Y-113774534D01*
X168915500Y-113572352D01*
X168915500Y-113367648D01*
X168883477Y-113165466D01*
X168820220Y-112970781D01*
X168820218Y-112970778D01*
X168820218Y-112970776D01*
X168786503Y-112904607D01*
X168727287Y-112788390D01*
X168719556Y-112777749D01*
X168606971Y-112622786D01*
X168462213Y-112478028D01*
X168296614Y-112357715D01*
X168290006Y-112354348D01*
X168203917Y-112310483D01*
X168153123Y-112262511D01*
X168136328Y-112194690D01*
X168158865Y-112128555D01*
X168203917Y-112089516D01*
X168296610Y-112042287D01*
X168317770Y-112026913D01*
X168462213Y-111921971D01*
X168462215Y-111921968D01*
X168462219Y-111921966D01*
X168606966Y-111777219D01*
X168606968Y-111777215D01*
X168606971Y-111777213D01*
X168690470Y-111662284D01*
X168727287Y-111611610D01*
X168820220Y-111429219D01*
X168883477Y-111234534D01*
X168915500Y-111032352D01*
X168915500Y-110827648D01*
X168883477Y-110625465D01*
X168820218Y-110430776D01*
X168786503Y-110364607D01*
X168727287Y-110248390D01*
X168719556Y-110237749D01*
X168606971Y-110082786D01*
X168462219Y-109938034D01*
X168450906Y-109929815D01*
X168368547Y-109869978D01*
X168325882Y-109814649D01*
X168319903Y-109745036D01*
X168352508Y-109683240D01*
X168402426Y-109651955D01*
X168484334Y-109624814D01*
X168633656Y-109532712D01*
X168757712Y-109408656D01*
X168849814Y-109259334D01*
X168904999Y-109092797D01*
X168915500Y-108990009D01*
X168915499Y-107789992D01*
X168904999Y-107687203D01*
X168849814Y-107520666D01*
X168757712Y-107371344D01*
X168633656Y-107247288D01*
X168484334Y-107155186D01*
X168317797Y-107100001D01*
X168317795Y-107100000D01*
X168215010Y-107089500D01*
X167014998Y-107089500D01*
X167014981Y-107089501D01*
X166912203Y-107100000D01*
X166912200Y-107100001D01*
X166745668Y-107155185D01*
X166745663Y-107155187D01*
X166596342Y-107247289D01*
X166472289Y-107371342D01*
X166380187Y-107520663D01*
X166380186Y-107520666D01*
X166325001Y-107687203D01*
X166325001Y-107687204D01*
X166325000Y-107687204D01*
X166314500Y-107789983D01*
X166314500Y-108990001D01*
X166314501Y-108990018D01*
X166325000Y-109092796D01*
X166325001Y-109092799D01*
X166380185Y-109259331D01*
X166380187Y-109259336D01*
X166393872Y-109281523D01*
X166472288Y-109408656D01*
X166596344Y-109532712D01*
X166745666Y-109624814D01*
X166827570Y-109651954D01*
X166885015Y-109691727D01*
X166911838Y-109756243D01*
X166899523Y-109825018D01*
X166861451Y-109869978D01*
X166767787Y-109938028D01*
X166767782Y-109938032D01*
X166623028Y-110082786D01*
X166502715Y-110248386D01*
X166409781Y-110430776D01*
X166346522Y-110625465D01*
X166314500Y-110827648D01*
X166314500Y-111032351D01*
X166346522Y-111234534D01*
X166409781Y-111429223D01*
X166502715Y-111611613D01*
X166623028Y-111777213D01*
X166767786Y-111921971D01*
X166922749Y-112034556D01*
X166933390Y-112042287D01*
X167024840Y-112088883D01*
X167026080Y-112089515D01*
X167076876Y-112137490D01*
X167093671Y-112205311D01*
X167071134Y-112271446D01*
X167026080Y-112310485D01*
X166933386Y-112357715D01*
X166767786Y-112478028D01*
X166623028Y-112622786D01*
X166502715Y-112788386D01*
X166409781Y-112970776D01*
X166346522Y-113165465D01*
X166314500Y-113367648D01*
X166314500Y-113572351D01*
X166346522Y-113774534D01*
X166409781Y-113969223D01*
X166502715Y-114151613D01*
X166623028Y-114317213D01*
X166767786Y-114461971D01*
X166922749Y-114574556D01*
X166933390Y-114582287D01*
X167024840Y-114628883D01*
X167026080Y-114629515D01*
X167076876Y-114677490D01*
X167093671Y-114745311D01*
X167071134Y-114811446D01*
X167026080Y-114850485D01*
X166933386Y-114897715D01*
X166767786Y-115018028D01*
X166623028Y-115162786D01*
X166502715Y-115328386D01*
X166409781Y-115510776D01*
X166346522Y-115705465D01*
X166314500Y-115907648D01*
X166314500Y-116112351D01*
X166346522Y-116314534D01*
X166409781Y-116509223D01*
X166473691Y-116634653D01*
X166501956Y-116690125D01*
X166502715Y-116691613D01*
X166623028Y-116857213D01*
X166653634Y-116887819D01*
X166687119Y-116949142D01*
X166682135Y-117018834D01*
X166640263Y-117074767D01*
X166574799Y-117099184D01*
X166565953Y-117099500D01*
X156797310Y-117099500D01*
X156730271Y-117079815D01*
X156709629Y-117063181D01*
X156000001Y-116353553D01*
X156000000Y-116353553D01*
X155290370Y-117063181D01*
X155229047Y-117096666D01*
X155202689Y-117099500D01*
X133874068Y-117099500D01*
X133807029Y-117079815D01*
X133763583Y-117031795D01*
X133703343Y-116913567D01*
X133564517Y-116722490D01*
X133397510Y-116555483D01*
X133206433Y-116416657D01*
X132995996Y-116309433D01*
X132771368Y-116236446D01*
X132538097Y-116199500D01*
X132538092Y-116199500D01*
X132301908Y-116199500D01*
X132301903Y-116199500D01*
X132068631Y-116236446D01*
X131844003Y-116309433D01*
X131633566Y-116416657D01*
X131546610Y-116479835D01*
X131442490Y-116555483D01*
X131442488Y-116555485D01*
X131442487Y-116555485D01*
X131275485Y-116722487D01*
X131275485Y-116722488D01*
X131275483Y-116722490D01*
X131215862Y-116804550D01*
X131136657Y-116913566D01*
X131029433Y-117124003D01*
X130956446Y-117348631D01*
X130919500Y-117581902D01*
X124920500Y-117581902D01*
X124920500Y-115901617D01*
X154750000Y-115901617D01*
X154750000Y-116098382D01*
X154780778Y-116292705D01*
X154841581Y-116479835D01*
X154930905Y-116655145D01*
X154956319Y-116690125D01*
X154956320Y-116690125D01*
X155646446Y-116000000D01*
X155646446Y-115999999D01*
X155600369Y-115953922D01*
X155650000Y-115953922D01*
X155650000Y-116046078D01*
X155673852Y-116135095D01*
X155719930Y-116214905D01*
X155785095Y-116280070D01*
X155864905Y-116326148D01*
X155953922Y-116350000D01*
X156046078Y-116350000D01*
X156135095Y-116326148D01*
X156214905Y-116280070D01*
X156280070Y-116214905D01*
X156326148Y-116135095D01*
X156350000Y-116046078D01*
X156350000Y-115999999D01*
X156353553Y-115999999D01*
X156353553Y-116000001D01*
X157043678Y-116690126D01*
X157043678Y-116690125D01*
X157069095Y-116655143D01*
X157158418Y-116479835D01*
X157219221Y-116292705D01*
X157250000Y-116098382D01*
X157250000Y-115901617D01*
X157219221Y-115707294D01*
X157158418Y-115520164D01*
X157069096Y-115344858D01*
X157043678Y-115309873D01*
X157043677Y-115309873D01*
X156353553Y-115999999D01*
X156350000Y-115999999D01*
X156350000Y-115953922D01*
X156326148Y-115864905D01*
X156280070Y-115785095D01*
X156214905Y-115719930D01*
X156135095Y-115673852D01*
X156046078Y-115650000D01*
X155953922Y-115650000D01*
X155864905Y-115673852D01*
X155785095Y-115719930D01*
X155719930Y-115785095D01*
X155673852Y-115864905D01*
X155650000Y-115953922D01*
X155600369Y-115953922D01*
X154956320Y-115309872D01*
X154956320Y-115309873D01*
X154930902Y-115344859D01*
X154930899Y-115344863D01*
X154841582Y-115520161D01*
X154780778Y-115707294D01*
X154750000Y-115901617D01*
X124920500Y-115901617D01*
X124920500Y-114956320D01*
X155309872Y-114956320D01*
X156000000Y-115646446D01*
X156000001Y-115646446D01*
X156690125Y-114956320D01*
X156690125Y-114956319D01*
X156655145Y-114930905D01*
X156479835Y-114841581D01*
X156292705Y-114780778D01*
X156098382Y-114750000D01*
X155901618Y-114750000D01*
X155707294Y-114780778D01*
X155520161Y-114841582D01*
X155344863Y-114930899D01*
X155344859Y-114930902D01*
X155309873Y-114956320D01*
X155309872Y-114956320D01*
X124920500Y-114956320D01*
X124920500Y-112581902D01*
X130919500Y-112581902D01*
X130919500Y-112818097D01*
X130956446Y-113051368D01*
X131029433Y-113275996D01*
X131095276Y-113405218D01*
X131136657Y-113486433D01*
X131275483Y-113677510D01*
X131442490Y-113844517D01*
X131633567Y-113983343D01*
X131732991Y-114034002D01*
X131844003Y-114090566D01*
X131844005Y-114090566D01*
X131844008Y-114090568D01*
X131964412Y-114129689D01*
X132068631Y-114163553D01*
X132301903Y-114200500D01*
X132301908Y-114200500D01*
X132538097Y-114200500D01*
X132771368Y-114163553D01*
X132808115Y-114151613D01*
X132995992Y-114090568D01*
X133206433Y-113983343D01*
X133397510Y-113844517D01*
X133564517Y-113677510D01*
X133703343Y-113486433D01*
X133810568Y-113275992D01*
X133883553Y-113051368D01*
X133896317Y-112970781D01*
X133920500Y-112818097D01*
X133920500Y-112581902D01*
X133883553Y-112348631D01*
X133835259Y-112200000D01*
X133810568Y-112124008D01*
X133797137Y-112097648D01*
X138769500Y-112097648D01*
X138769500Y-112302351D01*
X138801522Y-112504534D01*
X138864781Y-112699223D01*
X138957715Y-112881613D01*
X139078028Y-113047213D01*
X139222786Y-113191971D01*
X139338439Y-113275996D01*
X139388390Y-113312287D01*
X139497042Y-113367648D01*
X139570776Y-113405218D01*
X139570778Y-113405218D01*
X139570781Y-113405220D01*
X139675137Y-113439127D01*
X139765465Y-113468477D01*
X139866557Y-113484488D01*
X139967648Y-113500500D01*
X139967649Y-113500500D01*
X140172351Y-113500500D01*
X140172352Y-113500500D01*
X140374534Y-113468477D01*
X140569219Y-113405220D01*
X140751610Y-113312287D01*
X140844590Y-113244732D01*
X140917213Y-113191971D01*
X140917215Y-113191968D01*
X140917219Y-113191966D01*
X141061966Y-113047219D01*
X141061968Y-113047215D01*
X141061971Y-113047213D01*
X141117505Y-112970776D01*
X141182287Y-112881610D01*
X141275220Y-112699219D01*
X141338477Y-112504534D01*
X141370500Y-112302352D01*
X141370500Y-112097648D01*
X151469500Y-112097648D01*
X151469500Y-112302351D01*
X151501522Y-112504534D01*
X151564781Y-112699223D01*
X151657715Y-112881613D01*
X151778028Y-113047213D01*
X151922786Y-113191971D01*
X152038439Y-113275996D01*
X152088390Y-113312287D01*
X152197042Y-113367648D01*
X152270776Y-113405218D01*
X152270778Y-113405218D01*
X152270781Y-113405220D01*
X152375137Y-113439127D01*
X152465465Y-113468477D01*
X152566557Y-113484488D01*
X152667648Y-113500500D01*
X152667649Y-113500500D01*
X152872351Y-113500500D01*
X152872352Y-113500500D01*
X153074534Y-113468477D01*
X153269219Y-113405220D01*
X153451610Y-113312287D01*
X153544590Y-113244732D01*
X153617213Y-113191971D01*
X153617215Y-113191968D01*
X153617219Y-113191966D01*
X153761966Y-113047219D01*
X153761968Y-113047215D01*
X153761971Y-113047213D01*
X153817505Y-112970776D01*
X153882287Y-112881610D01*
X153975220Y-112699219D01*
X154038477Y-112504534D01*
X154070500Y-112302352D01*
X154070500Y-112097648D01*
X154038477Y-111895466D01*
X153975220Y-111700781D01*
X153975218Y-111700778D01*
X153975218Y-111700776D01*
X153941503Y-111634607D01*
X153882287Y-111518390D01*
X153874556Y-111507749D01*
X153761971Y-111352786D01*
X153617213Y-111208028D01*
X153451613Y-111087715D01*
X153451612Y-111087714D01*
X153451610Y-111087713D01*
X153394653Y-111058691D01*
X153269223Y-110994781D01*
X153074534Y-110931522D01*
X152899995Y-110903878D01*
X152872352Y-110899500D01*
X152667648Y-110899500D01*
X152643329Y-110903351D01*
X152465465Y-110931522D01*
X152270776Y-110994781D01*
X152088386Y-111087715D01*
X151922786Y-111208028D01*
X151778028Y-111352786D01*
X151657715Y-111518386D01*
X151564781Y-111700776D01*
X151501522Y-111895465D01*
X151469500Y-112097648D01*
X141370500Y-112097648D01*
X141338477Y-111895466D01*
X141275220Y-111700781D01*
X141275218Y-111700778D01*
X141275218Y-111700776D01*
X141241503Y-111634607D01*
X141182287Y-111518390D01*
X141174556Y-111507749D01*
X141061971Y-111352786D01*
X140917213Y-111208028D01*
X140751613Y-111087715D01*
X140751612Y-111087714D01*
X140751610Y-111087713D01*
X140694653Y-111058691D01*
X140569223Y-110994781D01*
X140374534Y-110931522D01*
X140199995Y-110903878D01*
X140172352Y-110899500D01*
X139967648Y-110899500D01*
X139943329Y-110903351D01*
X139765465Y-110931522D01*
X139570776Y-110994781D01*
X139388386Y-111087715D01*
X139222786Y-111208028D01*
X139078028Y-111352786D01*
X138957715Y-111518386D01*
X138864781Y-111700776D01*
X138801522Y-111895465D01*
X138769500Y-112097648D01*
X133797137Y-112097648D01*
X133703343Y-111913567D01*
X133564517Y-111722490D01*
X133397510Y-111555483D01*
X133206433Y-111416657D01*
X133168272Y-111397213D01*
X132995996Y-111309433D01*
X132771368Y-111236446D01*
X132538097Y-111199500D01*
X132538092Y-111199500D01*
X132301908Y-111199500D01*
X132301903Y-111199500D01*
X132068631Y-111236446D01*
X131844003Y-111309433D01*
X131633566Y-111416657D01*
X131616271Y-111429223D01*
X131442490Y-111555483D01*
X131442488Y-111555485D01*
X131442487Y-111555485D01*
X131275485Y-111722487D01*
X131275485Y-111722488D01*
X131275483Y-111722490D01*
X131235724Y-111777213D01*
X131136657Y-111913566D01*
X131029433Y-112124003D01*
X130956446Y-112348631D01*
X130919500Y-112581902D01*
X124920500Y-112581902D01*
X124920500Y-110447648D01*
X158119500Y-110447648D01*
X158119500Y-110652351D01*
X158151522Y-110854534D01*
X158214781Y-111049223D01*
X158266385Y-111150500D01*
X158295700Y-111208034D01*
X158307715Y-111231613D01*
X158428028Y-111397213D01*
X158572786Y-111541971D01*
X158727749Y-111654556D01*
X158738390Y-111662287D01*
X158813929Y-111700776D01*
X158920776Y-111755218D01*
X158920778Y-111755218D01*
X158920781Y-111755220D01*
X158988487Y-111777219D01*
X159115465Y-111818477D01*
X159216557Y-111834488D01*
X159317648Y-111850500D01*
X159317649Y-111850500D01*
X159522351Y-111850500D01*
X159522352Y-111850500D01*
X159724534Y-111818477D01*
X159919219Y-111755220D01*
X160101610Y-111662287D01*
X160248612Y-111555485D01*
X160267213Y-111541971D01*
X160267215Y-111541968D01*
X160267219Y-111541966D01*
X160411966Y-111397219D01*
X160411968Y-111397215D01*
X160411971Y-111397213D01*
X160532284Y-111231614D01*
X160532285Y-111231613D01*
X160532287Y-111231610D01*
X160539117Y-111218204D01*
X160587091Y-111167409D01*
X160649602Y-111150500D01*
X161613331Y-111150500D01*
X161613347Y-111150501D01*
X161620943Y-111150501D01*
X161779054Y-111150501D01*
X161779057Y-111150501D01*
X161931785Y-111109577D01*
X161981904Y-111080639D01*
X162068716Y-111030520D01*
X162180520Y-110918716D01*
X162180520Y-110918714D01*
X162190728Y-110908507D01*
X162190729Y-110908504D01*
X165550520Y-107548716D01*
X165629577Y-107411784D01*
X165670501Y-107259057D01*
X165670501Y-107100942D01*
X165670501Y-107093347D01*
X165670500Y-107093329D01*
X165670500Y-101429601D01*
X165690185Y-101362562D01*
X165738206Y-101319116D01*
X165751610Y-101312287D01*
X165917219Y-101191966D01*
X166061966Y-101047219D01*
X166061968Y-101047215D01*
X166061971Y-101047213D01*
X166129820Y-100953825D01*
X166182287Y-100881610D01*
X166275220Y-100699219D01*
X166338477Y-100504534D01*
X166370500Y-100302352D01*
X166370500Y-100097648D01*
X176469500Y-100097648D01*
X176469500Y-100302351D01*
X176501522Y-100504534D01*
X176564781Y-100699223D01*
X176657715Y-100881613D01*
X176778028Y-101047213D01*
X176922786Y-101191971D01*
X177035451Y-101273825D01*
X177088390Y-101312287D01*
X177169499Y-101353614D01*
X177270776Y-101405218D01*
X177270778Y-101405218D01*
X177270781Y-101405220D01*
X177345818Y-101429601D01*
X177465465Y-101468477D01*
X177531172Y-101478884D01*
X177667648Y-101500500D01*
X177667649Y-101500500D01*
X177872351Y-101500500D01*
X177872352Y-101500500D01*
X178074534Y-101468477D01*
X178269219Y-101405220D01*
X178451610Y-101312287D01*
X178579034Y-101219709D01*
X178617213Y-101191971D01*
X178617215Y-101191968D01*
X178617219Y-101191966D01*
X178761966Y-101047219D01*
X178761968Y-101047215D01*
X178761971Y-101047213D01*
X178829820Y-100953825D01*
X178882287Y-100881610D01*
X178975220Y-100699219D01*
X179038477Y-100504534D01*
X179070500Y-100302352D01*
X179070500Y-100221577D01*
X179749500Y-100221577D01*
X179749500Y-100418422D01*
X179780290Y-100612826D01*
X179841117Y-100800029D01*
X179919482Y-100953828D01*
X179930476Y-100975405D01*
X180046172Y-101134646D01*
X180185354Y-101273828D01*
X180344595Y-101389524D01*
X180392295Y-101413828D01*
X180519970Y-101478882D01*
X180519972Y-101478882D01*
X180519975Y-101478884D01*
X180586502Y-101500500D01*
X180707173Y-101539709D01*
X180901578Y-101570500D01*
X180901583Y-101570500D01*
X181098422Y-101570500D01*
X181292826Y-101539709D01*
X181480025Y-101478884D01*
X181655405Y-101389524D01*
X181814646Y-101273828D01*
X181953828Y-101134646D01*
X182069524Y-100975405D01*
X182158884Y-100800025D01*
X182219709Y-100612826D01*
X182240742Y-100480029D01*
X182250500Y-100418422D01*
X182250500Y-100221577D01*
X182219709Y-100027173D01*
X182158882Y-99839970D01*
X182091218Y-99707173D01*
X182069524Y-99664595D01*
X181953828Y-99505354D01*
X181814646Y-99366172D01*
X181655405Y-99250476D01*
X181480029Y-99161117D01*
X181292826Y-99100290D01*
X181098422Y-99069500D01*
X181098417Y-99069500D01*
X180901583Y-99069500D01*
X180901578Y-99069500D01*
X180707173Y-99100290D01*
X180519970Y-99161117D01*
X180344594Y-99250476D01*
X180253741Y-99316485D01*
X180185354Y-99366172D01*
X180185352Y-99366174D01*
X180185351Y-99366174D01*
X180046174Y-99505351D01*
X180046174Y-99505352D01*
X180046172Y-99505354D01*
X179996485Y-99573741D01*
X179930476Y-99664594D01*
X179841117Y-99839970D01*
X179780290Y-100027173D01*
X179749500Y-100221577D01*
X179070500Y-100221577D01*
X179070500Y-100097648D01*
X179038477Y-99895466D01*
X178975220Y-99700781D01*
X178975218Y-99700778D01*
X178975218Y-99700776D01*
X178941503Y-99634607D01*
X178882287Y-99518390D01*
X178872814Y-99505351D01*
X178761971Y-99352786D01*
X178617213Y-99208028D01*
X178451613Y-99087715D01*
X178451612Y-99087714D01*
X178451610Y-99087713D01*
X178394653Y-99058691D01*
X178269223Y-98994781D01*
X178074534Y-98931522D01*
X177899995Y-98903878D01*
X177872352Y-98899500D01*
X177667648Y-98899500D01*
X177643329Y-98903351D01*
X177465465Y-98931522D01*
X177270776Y-98994781D01*
X177088386Y-99087715D01*
X176922786Y-99208028D01*
X176778028Y-99352786D01*
X176657715Y-99518386D01*
X176564781Y-99700776D01*
X176501522Y-99895465D01*
X176469500Y-100097648D01*
X166370500Y-100097648D01*
X166338477Y-99895466D01*
X166275220Y-99700781D01*
X166275218Y-99700778D01*
X166275218Y-99700776D01*
X166241503Y-99634607D01*
X166182287Y-99518390D01*
X166172814Y-99505351D01*
X166061971Y-99352786D01*
X165917213Y-99208028D01*
X165751613Y-99087715D01*
X165751612Y-99087714D01*
X165751610Y-99087713D01*
X165694653Y-99058691D01*
X165569223Y-98994781D01*
X165374534Y-98931522D01*
X165199995Y-98903878D01*
X165172352Y-98899500D01*
X164967648Y-98899500D01*
X164943329Y-98903351D01*
X164765465Y-98931522D01*
X164570776Y-98994781D01*
X164388386Y-99087715D01*
X164222786Y-99208028D01*
X164078028Y-99352786D01*
X163957715Y-99518386D01*
X163864781Y-99700776D01*
X163801522Y-99895465D01*
X163769500Y-100097648D01*
X163769500Y-100302351D01*
X163801522Y-100504534D01*
X163864781Y-100699223D01*
X163957715Y-100881613D01*
X164078028Y-101047213D01*
X164078034Y-101047219D01*
X164222781Y-101191966D01*
X164388390Y-101312287D01*
X164401793Y-101319116D01*
X164452589Y-101367088D01*
X164469500Y-101429601D01*
X164469500Y-106879902D01*
X164449815Y-106946941D01*
X164433181Y-106967583D01*
X161487584Y-109913181D01*
X161426261Y-109946666D01*
X161399903Y-109949500D01*
X160649602Y-109949500D01*
X160582563Y-109929815D01*
X160539117Y-109881795D01*
X160532287Y-109868390D01*
X160532285Y-109868387D01*
X160532284Y-109868385D01*
X160411971Y-109702786D01*
X160267213Y-109558028D01*
X160101613Y-109437715D01*
X160101612Y-109437714D01*
X160101610Y-109437713D01*
X160044583Y-109408656D01*
X159919223Y-109344781D01*
X159724534Y-109281522D01*
X159549995Y-109253878D01*
X159522352Y-109249500D01*
X159317648Y-109249500D01*
X159293329Y-109253351D01*
X159115465Y-109281522D01*
X158920776Y-109344781D01*
X158738386Y-109437715D01*
X158572786Y-109558028D01*
X158428028Y-109702786D01*
X158307715Y-109868386D01*
X158214781Y-110050776D01*
X158151522Y-110245465D01*
X158119500Y-110447648D01*
X124920500Y-110447648D01*
X124920500Y-105097648D01*
X127769500Y-105097648D01*
X127769500Y-105302351D01*
X127801522Y-105504534D01*
X127864781Y-105699223D01*
X127957715Y-105881613D01*
X128078028Y-106047213D01*
X128222786Y-106191971D01*
X128377749Y-106304556D01*
X128388390Y-106312287D01*
X128504607Y-106371503D01*
X128570776Y-106405218D01*
X128570778Y-106405218D01*
X128570781Y-106405220D01*
X128675137Y-106439127D01*
X128765465Y-106468477D01*
X128866557Y-106484488D01*
X128967648Y-106500500D01*
X128967649Y-106500500D01*
X129172351Y-106500500D01*
X129172352Y-106500500D01*
X129374534Y-106468477D01*
X129569219Y-106405220D01*
X129751610Y-106312287D01*
X129844590Y-106244732D01*
X129917213Y-106191971D01*
X129917215Y-106191968D01*
X129917219Y-106191966D01*
X130061966Y-106047219D01*
X130061968Y-106047215D01*
X130061971Y-106047213D01*
X130114732Y-105974590D01*
X130182287Y-105881610D01*
X130275220Y-105699219D01*
X130338477Y-105504534D01*
X130370500Y-105302352D01*
X130370500Y-105097648D01*
X140469500Y-105097648D01*
X140469500Y-105302351D01*
X140501522Y-105504534D01*
X140564781Y-105699223D01*
X140657715Y-105881613D01*
X140778028Y-106047213D01*
X140922786Y-106191971D01*
X141077749Y-106304556D01*
X141088390Y-106312287D01*
X141204607Y-106371503D01*
X141270776Y-106405218D01*
X141270778Y-106405218D01*
X141270781Y-106405220D01*
X141375137Y-106439127D01*
X141465465Y-106468477D01*
X141566557Y-106484488D01*
X141667648Y-106500500D01*
X141667649Y-106500500D01*
X141872351Y-106500500D01*
X141872352Y-106500500D01*
X142074534Y-106468477D01*
X142269219Y-106405220D01*
X142451610Y-106312287D01*
X142544590Y-106244732D01*
X142617213Y-106191971D01*
X142617215Y-106191968D01*
X142617219Y-106191966D01*
X142761966Y-106047219D01*
X142761968Y-106047215D01*
X142761971Y-106047213D01*
X142814732Y-105974590D01*
X142882287Y-105881610D01*
X142975220Y-105699219D01*
X143038477Y-105504534D01*
X143070500Y-105302352D01*
X143070500Y-105097648D01*
X143038477Y-104895466D01*
X142975220Y-104700781D01*
X142975218Y-104700778D01*
X142975218Y-104700776D01*
X142941503Y-104634607D01*
X142882287Y-104518390D01*
X142874556Y-104507749D01*
X142761971Y-104352786D01*
X142617213Y-104208028D01*
X142451613Y-104087715D01*
X142451612Y-104087714D01*
X142451610Y-104087713D01*
X142394653Y-104058691D01*
X142269223Y-103994781D01*
X142074534Y-103931522D01*
X141899995Y-103903878D01*
X141872352Y-103899500D01*
X141667648Y-103899500D01*
X141643329Y-103903351D01*
X141465465Y-103931522D01*
X141270776Y-103994781D01*
X141088386Y-104087715D01*
X140922786Y-104208028D01*
X140778028Y-104352786D01*
X140657715Y-104518386D01*
X140564781Y-104700776D01*
X140501522Y-104895465D01*
X140469500Y-105097648D01*
X130370500Y-105097648D01*
X130338477Y-104895466D01*
X130275220Y-104700781D01*
X130275218Y-104700778D01*
X130275218Y-104700776D01*
X130241503Y-104634607D01*
X130182287Y-104518390D01*
X130174556Y-104507749D01*
X130061971Y-104352786D01*
X129917213Y-104208028D01*
X129751613Y-104087715D01*
X129751612Y-104087714D01*
X129751610Y-104087713D01*
X129694653Y-104058691D01*
X129569223Y-103994781D01*
X129374534Y-103931522D01*
X129199995Y-103903878D01*
X129172352Y-103899500D01*
X128967648Y-103899500D01*
X128943329Y-103903351D01*
X128765465Y-103931522D01*
X128570776Y-103994781D01*
X128388386Y-104087715D01*
X128222786Y-104208028D01*
X128078028Y-104352786D01*
X127957715Y-104518386D01*
X127864781Y-104700776D01*
X127801522Y-104895465D01*
X127769500Y-105097648D01*
X124920500Y-105097648D01*
X124920500Y-102081902D01*
X145419500Y-102081902D01*
X145419500Y-102318097D01*
X145456446Y-102551368D01*
X145529433Y-102775996D01*
X145636519Y-102986163D01*
X145636657Y-102986433D01*
X145775483Y-103177510D01*
X145942490Y-103344517D01*
X146133567Y-103483343D01*
X146232991Y-103534002D01*
X146344003Y-103590566D01*
X146344005Y-103590566D01*
X146344008Y-103590568D01*
X146464412Y-103629689D01*
X146568631Y-103663553D01*
X146801903Y-103700500D01*
X146801908Y-103700500D01*
X147038097Y-103700500D01*
X147271368Y-103663553D01*
X147272870Y-103663065D01*
X147495992Y-103590568D01*
X147706433Y-103483343D01*
X147897510Y-103344517D01*
X148064517Y-103177510D01*
X148203343Y-102986433D01*
X148310568Y-102775992D01*
X148383553Y-102551368D01*
X148408637Y-102392993D01*
X148420500Y-102318097D01*
X148420500Y-102081947D01*
X150420000Y-102081947D01*
X150420000Y-102318052D01*
X150456934Y-102551247D01*
X150529897Y-102775802D01*
X150637087Y-102986174D01*
X150697338Y-103069104D01*
X150697340Y-103069105D01*
X151437037Y-102329408D01*
X151454075Y-102392993D01*
X151519901Y-102507007D01*
X151612993Y-102600099D01*
X151727007Y-102665925D01*
X151790590Y-102682962D01*
X151050893Y-103422658D01*
X151133828Y-103482914D01*
X151344197Y-103590102D01*
X151568752Y-103663065D01*
X151568751Y-103663065D01*
X151801948Y-103700000D01*
X152038052Y-103700000D01*
X152271247Y-103663065D01*
X152495802Y-103590102D01*
X152706163Y-103482918D01*
X152706169Y-103482914D01*
X152789104Y-103422658D01*
X152789105Y-103422658D01*
X152049408Y-102682962D01*
X152112993Y-102665925D01*
X152227007Y-102600099D01*
X152320099Y-102507007D01*
X152385925Y-102392993D01*
X152402962Y-102329409D01*
X153142658Y-103069105D01*
X153142658Y-103069104D01*
X153202914Y-102986169D01*
X153202918Y-102986163D01*
X153310102Y-102775802D01*
X153383065Y-102551247D01*
X153420000Y-102318052D01*
X153420000Y-102081947D01*
X153383065Y-101848752D01*
X153310102Y-101624197D01*
X153202914Y-101413828D01*
X153142658Y-101330894D01*
X153142658Y-101330893D01*
X152402962Y-102070590D01*
X152385925Y-102007007D01*
X152320099Y-101892993D01*
X152227007Y-101799901D01*
X152112993Y-101734075D01*
X152049409Y-101717037D01*
X152789105Y-100977340D01*
X152789104Y-100977338D01*
X152706174Y-100917087D01*
X152495802Y-100809897D01*
X152271247Y-100736934D01*
X152271248Y-100736934D01*
X152038052Y-100700000D01*
X151801948Y-100700000D01*
X151568752Y-100736934D01*
X151344197Y-100809897D01*
X151133830Y-100917084D01*
X151050894Y-100977340D01*
X151790591Y-101717037D01*
X151727007Y-101734075D01*
X151612993Y-101799901D01*
X151519901Y-101892993D01*
X151454075Y-102007007D01*
X151437037Y-102070590D01*
X150697340Y-101330894D01*
X150637084Y-101413830D01*
X150529897Y-101624197D01*
X150456934Y-101848752D01*
X150420000Y-102081947D01*
X148420500Y-102081947D01*
X148420500Y-102081902D01*
X148383553Y-101848631D01*
X148310566Y-101624003D01*
X148254002Y-101512991D01*
X148203343Y-101413567D01*
X148064517Y-101222490D01*
X147897510Y-101055483D01*
X147706433Y-100916657D01*
X147495996Y-100809433D01*
X147271368Y-100736446D01*
X147038097Y-100699500D01*
X147038092Y-100699500D01*
X146801908Y-100699500D01*
X146801903Y-100699500D01*
X146568631Y-100736446D01*
X146344003Y-100809433D01*
X146133566Y-100916657D01*
X146050047Y-100977338D01*
X145942490Y-101055483D01*
X145942488Y-101055485D01*
X145942487Y-101055485D01*
X145775485Y-101222487D01*
X145775485Y-101222488D01*
X145775483Y-101222490D01*
X145738186Y-101273825D01*
X145636657Y-101413566D01*
X145529433Y-101624003D01*
X145456446Y-101848631D01*
X145419500Y-102081902D01*
X124920500Y-102081902D01*
X124920500Y-99901577D01*
X127749500Y-99901577D01*
X127749500Y-100098422D01*
X127780290Y-100292826D01*
X127841117Y-100480029D01*
X127908781Y-100612826D01*
X127930476Y-100655405D01*
X128046172Y-100814646D01*
X128185354Y-100953828D01*
X128344595Y-101069524D01*
X128427455Y-101111743D01*
X128519970Y-101158882D01*
X128519972Y-101158882D01*
X128519975Y-101158884D01*
X128620317Y-101191487D01*
X128707173Y-101219709D01*
X128901578Y-101250500D01*
X128901583Y-101250500D01*
X129098422Y-101250500D01*
X129292826Y-101219709D01*
X129480025Y-101158884D01*
X129655405Y-101069524D01*
X129814646Y-100953828D01*
X129953828Y-100814646D01*
X130069524Y-100655405D01*
X130158884Y-100480025D01*
X130219709Y-100292826D01*
X130230994Y-100221577D01*
X130250500Y-100098422D01*
X130250500Y-99901577D01*
X130219709Y-99707173D01*
X130158882Y-99519970D01*
X130069523Y-99344594D01*
X129953828Y-99185354D01*
X129814646Y-99046172D01*
X129655405Y-98930476D01*
X129594611Y-98899500D01*
X129480029Y-98841117D01*
X129292826Y-98780290D01*
X129098422Y-98749500D01*
X129098417Y-98749500D01*
X128901583Y-98749500D01*
X128901578Y-98749500D01*
X128707173Y-98780290D01*
X128519970Y-98841117D01*
X128344594Y-98930476D01*
X128301400Y-98961859D01*
X128185354Y-99046172D01*
X128185352Y-99046174D01*
X128185351Y-99046174D01*
X128046174Y-99185351D01*
X128046174Y-99185352D01*
X128046172Y-99185354D01*
X128029694Y-99208034D01*
X127930476Y-99344594D01*
X127841117Y-99519970D01*
X127780290Y-99707173D01*
X127749500Y-99901577D01*
X124920500Y-99901577D01*
X124920500Y-97747682D01*
X158120000Y-97747682D01*
X158120000Y-97952317D01*
X158152009Y-98154417D01*
X158215244Y-98349031D01*
X158308141Y-98531350D01*
X158308147Y-98531359D01*
X158340523Y-98575921D01*
X158340524Y-98575922D01*
X159020000Y-97896446D01*
X159020000Y-97902661D01*
X159047259Y-98004394D01*
X159099920Y-98095606D01*
X159174394Y-98170080D01*
X159265606Y-98222741D01*
X159367339Y-98250000D01*
X159373553Y-98250000D01*
X158694076Y-98929474D01*
X158738650Y-98961859D01*
X158920968Y-99054755D01*
X159115582Y-99117990D01*
X159317683Y-99150000D01*
X159522317Y-99150000D01*
X159724417Y-99117990D01*
X159919031Y-99054755D01*
X160101349Y-98961859D01*
X160145921Y-98929474D01*
X159466447Y-98250000D01*
X159472661Y-98250000D01*
X159574394Y-98222741D01*
X159665606Y-98170080D01*
X159740080Y-98095606D01*
X159792741Y-98004394D01*
X159820000Y-97902661D01*
X159820000Y-97896447D01*
X160499474Y-98575921D01*
X160531859Y-98531349D01*
X160624755Y-98349031D01*
X160687990Y-98154417D01*
X160720000Y-97952317D01*
X160720000Y-97747682D01*
X160687990Y-97545582D01*
X160624755Y-97350968D01*
X160531859Y-97168650D01*
X160499474Y-97124077D01*
X160499474Y-97124076D01*
X159820000Y-97803551D01*
X159820000Y-97797339D01*
X159792741Y-97695606D01*
X159740080Y-97604394D01*
X159665606Y-97529920D01*
X159574394Y-97477259D01*
X159472661Y-97450000D01*
X159466446Y-97450000D01*
X160145922Y-96770524D01*
X160145921Y-96770523D01*
X160101359Y-96738147D01*
X160101350Y-96738141D01*
X159919031Y-96645244D01*
X159724417Y-96582009D01*
X159522317Y-96550000D01*
X159317683Y-96550000D01*
X159115582Y-96582009D01*
X158920968Y-96645244D01*
X158738644Y-96738143D01*
X158694077Y-96770523D01*
X158694077Y-96770524D01*
X159373554Y-97450000D01*
X159367339Y-97450000D01*
X159265606Y-97477259D01*
X159174394Y-97529920D01*
X159099920Y-97604394D01*
X159047259Y-97695606D01*
X159020000Y-97797339D01*
X159020000Y-97803553D01*
X158340524Y-97124077D01*
X158340523Y-97124077D01*
X158308143Y-97168644D01*
X158215244Y-97350968D01*
X158152009Y-97545582D01*
X158120000Y-97747682D01*
X124920500Y-97747682D01*
X124920500Y-95824500D01*
X124940185Y-95757461D01*
X124992989Y-95711706D01*
X125044500Y-95700500D01*
X183795500Y-95700500D01*
X183862539Y-95720185D01*
G37*
G04 #@! TD.AperFunction*
M02*
