M48
; DRILL file {KiCad 9.0.4} date 2025-10-11T15:13:11-0400
; FORMAT={-:-/ absolute / metric / decimal}
; #@! TF.CreationDate,2025-10-11T15:13:11-04:00
; #@! TF.GenerationSoftware,Kicad,Pcbnew,9.0.4
; #@! TF.FileFunction,Plated,1,2,PTH
FMAT,2
METRIC
; #@! TA.AperFunction,Plated,PTH,ComponentDrill
T1C0.800
; #@! TA.AperFunction,Plated,PTH,ComponentDrill
T2C1.000
; #@! TA.AperFunction,Plated,PTH,ComponentDrill
T3C2.200
%
G90
G05
T1
X133.5Y-90.0
X133.5Y-111.0
X146.2Y-90.0
X146.2Y-111.0
X146.695Y-98.19
X146.695Y-100.73
X146.695Y-103.27
X146.695Y-105.81
X149.5Y-93.5
X151.5Y-93.5
X152.5Y-90.0
X152.5Y-111.0
X154.315Y-98.19
X154.315Y-100.73
X154.315Y-103.27
X154.315Y-105.81
X165.2Y-90.0
X165.2Y-111.0
X170.5Y-98.0
X170.5Y-100.0
X170.5Y-103.0
X170.5Y-105.0
T2
X137.5Y-99.0
X137.5Y-104.0
X162.5Y-99.0
X162.5Y-104.0
T3
X128.5Y-89.0
X128.5Y-112.0
X174.5Y-89.0
X174.5Y-112.0
M30
