G04 #@! TF.GenerationSoftware,KiCad,Pcbnew,9.0.4*
G04 #@! TF.CreationDate,2025-10-11T15:13:14-04:00*
G04 #@! TF.ProjectId,test1,74657374-312e-46b6-9963-61645f706362,rev?*
G04 #@! TF.SameCoordinates,Original*
G04 #@! TF.FileFunction,Legend,Top*
G04 #@! TF.FilePolarity,Positive*
%FSLAX46Y46*%
G04 Gerber Fmt 4.6, Leading zero omitted, Abs format (unit mm)*
G04 Created by KiCad (PCBNEW 9.0.4) date 2025-10-11 15:13:14*
%MOMM*%
%LPD*%
G01*
G04 APERTURE LIST*
G04 Aperture macros list*
%AMRoundRect*
0 Rectangle with rounded corners*
0 $1 Rounding radius*
0 $2 $3 $4 $5 $6 $7 $8 $9 X,Y pos of 4 corners*
0 Add a 4 corners polygon primitive as box body*
4,1,4,$2,$3,$4,$5,$6,$7,$8,$9,$2,$3,0*
0 Add four circle primitives for the rounded corners*
1,1,$1+$1,$2,$3*
1,1,$1+$1,$4,$5*
1,1,$1+$1,$6,$7*
1,1,$1+$1,$8,$9*
0 Add four rect primitives between the rounded corners*
20,1,$1+$1,$2,$3,$4,$5,0*
20,1,$1+$1,$4,$5,$6,$7,0*
20,1,$1+$1,$6,$7,$8,$9,0*
20,1,$1+$1,$8,$9,$2,$3,0*%
G04 Aperture macros list end*
%ADD10C,0.150000*%
%ADD11C,0.250000*%
%ADD12C,0.120000*%
%ADD13C,1.350000*%
%ADD14R,1.350000X1.350000*%
%ADD15C,2.600000*%
%ADD16C,3.800000*%
%ADD17C,1.600000*%
%ADD18C,2.000000*%
%ADD19RoundRect,0.250000X-0.550000X-0.550000X0.550000X-0.550000X0.550000X0.550000X-0.550000X0.550000X0*%
G04 APERTURE END LIST*
D10*
X162859580Y-101666666D02*
X162907200Y-101714285D01*
X162907200Y-101714285D02*
X162954819Y-101857142D01*
X162954819Y-101857142D02*
X162954819Y-101952380D01*
X162954819Y-101952380D02*
X162907200Y-102095237D01*
X162907200Y-102095237D02*
X162811961Y-102190475D01*
X162811961Y-102190475D02*
X162716723Y-102238094D01*
X162716723Y-102238094D02*
X162526247Y-102285713D01*
X162526247Y-102285713D02*
X162383390Y-102285713D01*
X162383390Y-102285713D02*
X162192914Y-102238094D01*
X162192914Y-102238094D02*
X162097676Y-102190475D01*
X162097676Y-102190475D02*
X162002438Y-102095237D01*
X162002438Y-102095237D02*
X161954819Y-101952380D01*
X161954819Y-101952380D02*
X161954819Y-101857142D01*
X161954819Y-101857142D02*
X162002438Y-101714285D01*
X162002438Y-101714285D02*
X162050057Y-101666666D01*
X162050057Y-101285713D02*
X162002438Y-101238094D01*
X162002438Y-101238094D02*
X161954819Y-101142856D01*
X161954819Y-101142856D02*
X161954819Y-100904761D01*
X161954819Y-100904761D02*
X162002438Y-100809523D01*
X162002438Y-100809523D02*
X162050057Y-100761904D01*
X162050057Y-100761904D02*
X162145295Y-100714285D01*
X162145295Y-100714285D02*
X162240533Y-100714285D01*
X162240533Y-100714285D02*
X162383390Y-100761904D01*
X162383390Y-100761904D02*
X162954819Y-101333332D01*
X162954819Y-101333332D02*
X162954819Y-100714285D01*
X147573866Y-95666666D02*
X147573866Y-94904762D01*
X146954819Y-94571428D02*
X147954819Y-94238095D01*
X147954819Y-94238095D02*
X146954819Y-93904762D01*
X147907200Y-93142857D02*
X147954819Y-93238095D01*
X147954819Y-93238095D02*
X147954819Y-93428571D01*
X147954819Y-93428571D02*
X147907200Y-93523809D01*
X147907200Y-93523809D02*
X147859580Y-93571428D01*
X147859580Y-93571428D02*
X147764342Y-93619047D01*
X147764342Y-93619047D02*
X147478628Y-93619047D01*
X147478628Y-93619047D02*
X147383390Y-93571428D01*
X147383390Y-93571428D02*
X147335771Y-93523809D01*
X147335771Y-93523809D02*
X147288152Y-93428571D01*
X147288152Y-93428571D02*
X147288152Y-93238095D01*
X147288152Y-93238095D02*
X147335771Y-93142857D01*
X147907200Y-92285714D02*
X147954819Y-92380952D01*
X147954819Y-92380952D02*
X147954819Y-92571428D01*
X147954819Y-92571428D02*
X147907200Y-92666666D01*
X147907200Y-92666666D02*
X147859580Y-92714285D01*
X147859580Y-92714285D02*
X147764342Y-92761904D01*
X147764342Y-92761904D02*
X147478628Y-92761904D01*
X147478628Y-92761904D02*
X147383390Y-92714285D01*
X147383390Y-92714285D02*
X147335771Y-92666666D01*
X147335771Y-92666666D02*
X147288152Y-92571428D01*
X147288152Y-92571428D02*
X147288152Y-92380952D01*
X147288152Y-92380952D02*
X147335771Y-92285714D01*
D11*
X172926377Y-99912238D02*
X172831139Y-99864619D01*
X172831139Y-99864619D02*
X172688282Y-99864619D01*
X172688282Y-99864619D02*
X172545425Y-99912238D01*
X172545425Y-99912238D02*
X172450187Y-100007476D01*
X172450187Y-100007476D02*
X172402568Y-100102714D01*
X172402568Y-100102714D02*
X172354949Y-100293190D01*
X172354949Y-100293190D02*
X172354949Y-100436047D01*
X172354949Y-100436047D02*
X172402568Y-100626523D01*
X172402568Y-100626523D02*
X172450187Y-100721761D01*
X172450187Y-100721761D02*
X172545425Y-100817000D01*
X172545425Y-100817000D02*
X172688282Y-100864619D01*
X172688282Y-100864619D02*
X172783520Y-100864619D01*
X172783520Y-100864619D02*
X172926377Y-100817000D01*
X172926377Y-100817000D02*
X172973996Y-100769380D01*
X172973996Y-100769380D02*
X172973996Y-100436047D01*
X172973996Y-100436047D02*
X172783520Y-100436047D01*
X173402568Y-100864619D02*
X173402568Y-99864619D01*
X173402568Y-99864619D02*
X173973996Y-100864619D01*
X173973996Y-100864619D02*
X173973996Y-99864619D01*
X174450187Y-100864619D02*
X174450187Y-99864619D01*
X174450187Y-99864619D02*
X174688282Y-99864619D01*
X174688282Y-99864619D02*
X174831139Y-99912238D01*
X174831139Y-99912238D02*
X174926377Y-100007476D01*
X174926377Y-100007476D02*
X174973996Y-100102714D01*
X174973996Y-100102714D02*
X175021615Y-100293190D01*
X175021615Y-100293190D02*
X175021615Y-100436047D01*
X175021615Y-100436047D02*
X174973996Y-100626523D01*
X174973996Y-100626523D02*
X174926377Y-100721761D01*
X174926377Y-100721761D02*
X174831139Y-100817000D01*
X174831139Y-100817000D02*
X174688282Y-100864619D01*
X174688282Y-100864619D02*
X174450187Y-100864619D01*
X172926377Y-102412238D02*
X172831139Y-102364619D01*
X172831139Y-102364619D02*
X172688282Y-102364619D01*
X172688282Y-102364619D02*
X172545425Y-102412238D01*
X172545425Y-102412238D02*
X172450187Y-102507476D01*
X172450187Y-102507476D02*
X172402568Y-102602714D01*
X172402568Y-102602714D02*
X172354949Y-102793190D01*
X172354949Y-102793190D02*
X172354949Y-102936047D01*
X172354949Y-102936047D02*
X172402568Y-103126523D01*
X172402568Y-103126523D02*
X172450187Y-103221761D01*
X172450187Y-103221761D02*
X172545425Y-103317000D01*
X172545425Y-103317000D02*
X172688282Y-103364619D01*
X172688282Y-103364619D02*
X172783520Y-103364619D01*
X172783520Y-103364619D02*
X172926377Y-103317000D01*
X172926377Y-103317000D02*
X172973996Y-103269380D01*
X172973996Y-103269380D02*
X172973996Y-102936047D01*
X172973996Y-102936047D02*
X172783520Y-102936047D01*
X173402568Y-103364619D02*
X173402568Y-102364619D01*
X173402568Y-102364619D02*
X173973996Y-103364619D01*
X173973996Y-103364619D02*
X173973996Y-102364619D01*
X174450187Y-103364619D02*
X174450187Y-102364619D01*
X174450187Y-102364619D02*
X174688282Y-102364619D01*
X174688282Y-102364619D02*
X174831139Y-102412238D01*
X174831139Y-102412238D02*
X174926377Y-102507476D01*
X174926377Y-102507476D02*
X174973996Y-102602714D01*
X174973996Y-102602714D02*
X175021615Y-102793190D01*
X175021615Y-102793190D02*
X175021615Y-102936047D01*
X175021615Y-102936047D02*
X174973996Y-103126523D01*
X174973996Y-103126523D02*
X174926377Y-103221761D01*
X174926377Y-103221761D02*
X174831139Y-103317000D01*
X174831139Y-103317000D02*
X174688282Y-103364619D01*
X174688282Y-103364619D02*
X174450187Y-103364619D01*
D10*
X153064819Y-94690475D02*
X154064819Y-94357142D01*
X154064819Y-94357142D02*
X153064819Y-94023809D01*
X154017200Y-93261904D02*
X154064819Y-93357142D01*
X154064819Y-93357142D02*
X154064819Y-93547618D01*
X154064819Y-93547618D02*
X154017200Y-93642856D01*
X154017200Y-93642856D02*
X153969580Y-93690475D01*
X153969580Y-93690475D02*
X153874342Y-93738094D01*
X153874342Y-93738094D02*
X153588628Y-93738094D01*
X153588628Y-93738094D02*
X153493390Y-93690475D01*
X153493390Y-93690475D02*
X153445771Y-93642856D01*
X153445771Y-93642856D02*
X153398152Y-93547618D01*
X153398152Y-93547618D02*
X153398152Y-93357142D01*
X153398152Y-93357142D02*
X153445771Y-93261904D01*
X154017200Y-92404761D02*
X154064819Y-92499999D01*
X154064819Y-92499999D02*
X154064819Y-92690475D01*
X154064819Y-92690475D02*
X154017200Y-92785713D01*
X154017200Y-92785713D02*
X153969580Y-92833332D01*
X153969580Y-92833332D02*
X153874342Y-92880951D01*
X153874342Y-92880951D02*
X153588628Y-92880951D01*
X153588628Y-92880951D02*
X153493390Y-92833332D01*
X153493390Y-92833332D02*
X153445771Y-92785713D01*
X153445771Y-92785713D02*
X153398152Y-92690475D01*
X153398152Y-92690475D02*
X153398152Y-92499999D01*
X153398152Y-92499999D02*
X153445771Y-92404761D01*
X126047619Y-92407200D02*
X126190476Y-92454819D01*
X126190476Y-92454819D02*
X126428571Y-92454819D01*
X126428571Y-92454819D02*
X126523809Y-92407200D01*
X126523809Y-92407200D02*
X126571428Y-92359580D01*
X126571428Y-92359580D02*
X126619047Y-92264342D01*
X126619047Y-92264342D02*
X126619047Y-92169104D01*
X126619047Y-92169104D02*
X126571428Y-92073866D01*
X126571428Y-92073866D02*
X126523809Y-92026247D01*
X126523809Y-92026247D02*
X126428571Y-91978628D01*
X126428571Y-91978628D02*
X126238095Y-91931009D01*
X126238095Y-91931009D02*
X126142857Y-91883390D01*
X126142857Y-91883390D02*
X126095238Y-91835771D01*
X126095238Y-91835771D02*
X126047619Y-91740533D01*
X126047619Y-91740533D02*
X126047619Y-91645295D01*
X126047619Y-91645295D02*
X126095238Y-91550057D01*
X126095238Y-91550057D02*
X126142857Y-91502438D01*
X126142857Y-91502438D02*
X126238095Y-91454819D01*
X126238095Y-91454819D02*
X126476190Y-91454819D01*
X126476190Y-91454819D02*
X126619047Y-91502438D01*
X127476190Y-92407200D02*
X127380952Y-92454819D01*
X127380952Y-92454819D02*
X127190476Y-92454819D01*
X127190476Y-92454819D02*
X127095238Y-92407200D01*
X127095238Y-92407200D02*
X127047619Y-92359580D01*
X127047619Y-92359580D02*
X127000000Y-92264342D01*
X127000000Y-92264342D02*
X127000000Y-91978628D01*
X127000000Y-91978628D02*
X127047619Y-91883390D01*
X127047619Y-91883390D02*
X127095238Y-91835771D01*
X127095238Y-91835771D02*
X127190476Y-91788152D01*
X127190476Y-91788152D02*
X127380952Y-91788152D01*
X127380952Y-91788152D02*
X127476190Y-91835771D01*
X127904762Y-92454819D02*
X127904762Y-91788152D01*
X127904762Y-91978628D02*
X127952381Y-91883390D01*
X127952381Y-91883390D02*
X128000000Y-91835771D01*
X128000000Y-91835771D02*
X128095238Y-91788152D01*
X128095238Y-91788152D02*
X128190476Y-91788152D01*
X128904762Y-92407200D02*
X128809524Y-92454819D01*
X128809524Y-92454819D02*
X128619048Y-92454819D01*
X128619048Y-92454819D02*
X128523810Y-92407200D01*
X128523810Y-92407200D02*
X128476191Y-92311961D01*
X128476191Y-92311961D02*
X128476191Y-91931009D01*
X128476191Y-91931009D02*
X128523810Y-91835771D01*
X128523810Y-91835771D02*
X128619048Y-91788152D01*
X128619048Y-91788152D02*
X128809524Y-91788152D01*
X128809524Y-91788152D02*
X128904762Y-91835771D01*
X128904762Y-91835771D02*
X128952381Y-91931009D01*
X128952381Y-91931009D02*
X128952381Y-92026247D01*
X128952381Y-92026247D02*
X128476191Y-92121485D01*
X129285715Y-91788152D02*
X129476191Y-92454819D01*
X129476191Y-92454819D02*
X129666667Y-91978628D01*
X129666667Y-91978628D02*
X129857143Y-92454819D01*
X129857143Y-92454819D02*
X130047619Y-91788152D01*
X130857143Y-91788152D02*
X130857143Y-92454819D01*
X130619048Y-91407200D02*
X130380953Y-92121485D01*
X130380953Y-92121485D02*
X131000000Y-92121485D01*
X172047619Y-92407200D02*
X172190476Y-92454819D01*
X172190476Y-92454819D02*
X172428571Y-92454819D01*
X172428571Y-92454819D02*
X172523809Y-92407200D01*
X172523809Y-92407200D02*
X172571428Y-92359580D01*
X172571428Y-92359580D02*
X172619047Y-92264342D01*
X172619047Y-92264342D02*
X172619047Y-92169104D01*
X172619047Y-92169104D02*
X172571428Y-92073866D01*
X172571428Y-92073866D02*
X172523809Y-92026247D01*
X172523809Y-92026247D02*
X172428571Y-91978628D01*
X172428571Y-91978628D02*
X172238095Y-91931009D01*
X172238095Y-91931009D02*
X172142857Y-91883390D01*
X172142857Y-91883390D02*
X172095238Y-91835771D01*
X172095238Y-91835771D02*
X172047619Y-91740533D01*
X172047619Y-91740533D02*
X172047619Y-91645295D01*
X172047619Y-91645295D02*
X172095238Y-91550057D01*
X172095238Y-91550057D02*
X172142857Y-91502438D01*
X172142857Y-91502438D02*
X172238095Y-91454819D01*
X172238095Y-91454819D02*
X172476190Y-91454819D01*
X172476190Y-91454819D02*
X172619047Y-91502438D01*
X173476190Y-92407200D02*
X173380952Y-92454819D01*
X173380952Y-92454819D02*
X173190476Y-92454819D01*
X173190476Y-92454819D02*
X173095238Y-92407200D01*
X173095238Y-92407200D02*
X173047619Y-92359580D01*
X173047619Y-92359580D02*
X173000000Y-92264342D01*
X173000000Y-92264342D02*
X173000000Y-91978628D01*
X173000000Y-91978628D02*
X173047619Y-91883390D01*
X173047619Y-91883390D02*
X173095238Y-91835771D01*
X173095238Y-91835771D02*
X173190476Y-91788152D01*
X173190476Y-91788152D02*
X173380952Y-91788152D01*
X173380952Y-91788152D02*
X173476190Y-91835771D01*
X173904762Y-92454819D02*
X173904762Y-91788152D01*
X173904762Y-91978628D02*
X173952381Y-91883390D01*
X173952381Y-91883390D02*
X174000000Y-91835771D01*
X174000000Y-91835771D02*
X174095238Y-91788152D01*
X174095238Y-91788152D02*
X174190476Y-91788152D01*
X174904762Y-92407200D02*
X174809524Y-92454819D01*
X174809524Y-92454819D02*
X174619048Y-92454819D01*
X174619048Y-92454819D02*
X174523810Y-92407200D01*
X174523810Y-92407200D02*
X174476191Y-92311961D01*
X174476191Y-92311961D02*
X174476191Y-91931009D01*
X174476191Y-91931009D02*
X174523810Y-91835771D01*
X174523810Y-91835771D02*
X174619048Y-91788152D01*
X174619048Y-91788152D02*
X174809524Y-91788152D01*
X174809524Y-91788152D02*
X174904762Y-91835771D01*
X174904762Y-91835771D02*
X174952381Y-91931009D01*
X174952381Y-91931009D02*
X174952381Y-92026247D01*
X174952381Y-92026247D02*
X174476191Y-92121485D01*
X175285715Y-91788152D02*
X175476191Y-92454819D01*
X175476191Y-92454819D02*
X175666667Y-91978628D01*
X175666667Y-91978628D02*
X175857143Y-92454819D01*
X175857143Y-92454819D02*
X176047619Y-91788152D01*
X176333334Y-91454819D02*
X176952381Y-91454819D01*
X176952381Y-91454819D02*
X176619048Y-91835771D01*
X176619048Y-91835771D02*
X176761905Y-91835771D01*
X176761905Y-91835771D02*
X176857143Y-91883390D01*
X176857143Y-91883390D02*
X176904762Y-91931009D01*
X176904762Y-91931009D02*
X176952381Y-92026247D01*
X176952381Y-92026247D02*
X176952381Y-92264342D01*
X176952381Y-92264342D02*
X176904762Y-92359580D01*
X176904762Y-92359580D02*
X176857143Y-92407200D01*
X176857143Y-92407200D02*
X176761905Y-92454819D01*
X176761905Y-92454819D02*
X176476191Y-92454819D01*
X176476191Y-92454819D02*
X176380953Y-92407200D01*
X176380953Y-92407200D02*
X176333334Y-92359580D01*
X172047619Y-109557200D02*
X172190476Y-109604819D01*
X172190476Y-109604819D02*
X172428571Y-109604819D01*
X172428571Y-109604819D02*
X172523809Y-109557200D01*
X172523809Y-109557200D02*
X172571428Y-109509580D01*
X172571428Y-109509580D02*
X172619047Y-109414342D01*
X172619047Y-109414342D02*
X172619047Y-109319104D01*
X172619047Y-109319104D02*
X172571428Y-109223866D01*
X172571428Y-109223866D02*
X172523809Y-109176247D01*
X172523809Y-109176247D02*
X172428571Y-109128628D01*
X172428571Y-109128628D02*
X172238095Y-109081009D01*
X172238095Y-109081009D02*
X172142857Y-109033390D01*
X172142857Y-109033390D02*
X172095238Y-108985771D01*
X172095238Y-108985771D02*
X172047619Y-108890533D01*
X172047619Y-108890533D02*
X172047619Y-108795295D01*
X172047619Y-108795295D02*
X172095238Y-108700057D01*
X172095238Y-108700057D02*
X172142857Y-108652438D01*
X172142857Y-108652438D02*
X172238095Y-108604819D01*
X172238095Y-108604819D02*
X172476190Y-108604819D01*
X172476190Y-108604819D02*
X172619047Y-108652438D01*
X173476190Y-109557200D02*
X173380952Y-109604819D01*
X173380952Y-109604819D02*
X173190476Y-109604819D01*
X173190476Y-109604819D02*
X173095238Y-109557200D01*
X173095238Y-109557200D02*
X173047619Y-109509580D01*
X173047619Y-109509580D02*
X173000000Y-109414342D01*
X173000000Y-109414342D02*
X173000000Y-109128628D01*
X173000000Y-109128628D02*
X173047619Y-109033390D01*
X173047619Y-109033390D02*
X173095238Y-108985771D01*
X173095238Y-108985771D02*
X173190476Y-108938152D01*
X173190476Y-108938152D02*
X173380952Y-108938152D01*
X173380952Y-108938152D02*
X173476190Y-108985771D01*
X173904762Y-109604819D02*
X173904762Y-108938152D01*
X173904762Y-109128628D02*
X173952381Y-109033390D01*
X173952381Y-109033390D02*
X174000000Y-108985771D01*
X174000000Y-108985771D02*
X174095238Y-108938152D01*
X174095238Y-108938152D02*
X174190476Y-108938152D01*
X174904762Y-109557200D02*
X174809524Y-109604819D01*
X174809524Y-109604819D02*
X174619048Y-109604819D01*
X174619048Y-109604819D02*
X174523810Y-109557200D01*
X174523810Y-109557200D02*
X174476191Y-109461961D01*
X174476191Y-109461961D02*
X174476191Y-109081009D01*
X174476191Y-109081009D02*
X174523810Y-108985771D01*
X174523810Y-108985771D02*
X174619048Y-108938152D01*
X174619048Y-108938152D02*
X174809524Y-108938152D01*
X174809524Y-108938152D02*
X174904762Y-108985771D01*
X174904762Y-108985771D02*
X174952381Y-109081009D01*
X174952381Y-109081009D02*
X174952381Y-109176247D01*
X174952381Y-109176247D02*
X174476191Y-109271485D01*
X175285715Y-108938152D02*
X175476191Y-109604819D01*
X175476191Y-109604819D02*
X175666667Y-109128628D01*
X175666667Y-109128628D02*
X175857143Y-109604819D01*
X175857143Y-109604819D02*
X176047619Y-108938152D01*
X176380953Y-108700057D02*
X176428572Y-108652438D01*
X176428572Y-108652438D02*
X176523810Y-108604819D01*
X176523810Y-108604819D02*
X176761905Y-108604819D01*
X176761905Y-108604819D02*
X176857143Y-108652438D01*
X176857143Y-108652438D02*
X176904762Y-108700057D01*
X176904762Y-108700057D02*
X176952381Y-108795295D01*
X176952381Y-108795295D02*
X176952381Y-108890533D01*
X176952381Y-108890533D02*
X176904762Y-109033390D01*
X176904762Y-109033390D02*
X176333334Y-109604819D01*
X176333334Y-109604819D02*
X176952381Y-109604819D01*
X126047619Y-109557200D02*
X126190476Y-109604819D01*
X126190476Y-109604819D02*
X126428571Y-109604819D01*
X126428571Y-109604819D02*
X126523809Y-109557200D01*
X126523809Y-109557200D02*
X126571428Y-109509580D01*
X126571428Y-109509580D02*
X126619047Y-109414342D01*
X126619047Y-109414342D02*
X126619047Y-109319104D01*
X126619047Y-109319104D02*
X126571428Y-109223866D01*
X126571428Y-109223866D02*
X126523809Y-109176247D01*
X126523809Y-109176247D02*
X126428571Y-109128628D01*
X126428571Y-109128628D02*
X126238095Y-109081009D01*
X126238095Y-109081009D02*
X126142857Y-109033390D01*
X126142857Y-109033390D02*
X126095238Y-108985771D01*
X126095238Y-108985771D02*
X126047619Y-108890533D01*
X126047619Y-108890533D02*
X126047619Y-108795295D01*
X126047619Y-108795295D02*
X126095238Y-108700057D01*
X126095238Y-108700057D02*
X126142857Y-108652438D01*
X126142857Y-108652438D02*
X126238095Y-108604819D01*
X126238095Y-108604819D02*
X126476190Y-108604819D01*
X126476190Y-108604819D02*
X126619047Y-108652438D01*
X127476190Y-109557200D02*
X127380952Y-109604819D01*
X127380952Y-109604819D02*
X127190476Y-109604819D01*
X127190476Y-109604819D02*
X127095238Y-109557200D01*
X127095238Y-109557200D02*
X127047619Y-109509580D01*
X127047619Y-109509580D02*
X127000000Y-109414342D01*
X127000000Y-109414342D02*
X127000000Y-109128628D01*
X127000000Y-109128628D02*
X127047619Y-109033390D01*
X127047619Y-109033390D02*
X127095238Y-108985771D01*
X127095238Y-108985771D02*
X127190476Y-108938152D01*
X127190476Y-108938152D02*
X127380952Y-108938152D01*
X127380952Y-108938152D02*
X127476190Y-108985771D01*
X127904762Y-109604819D02*
X127904762Y-108938152D01*
X127904762Y-109128628D02*
X127952381Y-109033390D01*
X127952381Y-109033390D02*
X128000000Y-108985771D01*
X128000000Y-108985771D02*
X128095238Y-108938152D01*
X128095238Y-108938152D02*
X128190476Y-108938152D01*
X128904762Y-109557200D02*
X128809524Y-109604819D01*
X128809524Y-109604819D02*
X128619048Y-109604819D01*
X128619048Y-109604819D02*
X128523810Y-109557200D01*
X128523810Y-109557200D02*
X128476191Y-109461961D01*
X128476191Y-109461961D02*
X128476191Y-109081009D01*
X128476191Y-109081009D02*
X128523810Y-108985771D01*
X128523810Y-108985771D02*
X128619048Y-108938152D01*
X128619048Y-108938152D02*
X128809524Y-108938152D01*
X128809524Y-108938152D02*
X128904762Y-108985771D01*
X128904762Y-108985771D02*
X128952381Y-109081009D01*
X128952381Y-109081009D02*
X128952381Y-109176247D01*
X128952381Y-109176247D02*
X128476191Y-109271485D01*
X129285715Y-108938152D02*
X129476191Y-109604819D01*
X129476191Y-109604819D02*
X129666667Y-109128628D01*
X129666667Y-109128628D02*
X129857143Y-109604819D01*
X129857143Y-109604819D02*
X130047619Y-108938152D01*
X130952381Y-109604819D02*
X130380953Y-109604819D01*
X130666667Y-109604819D02*
X130666667Y-108604819D01*
X130666667Y-108604819D02*
X130571429Y-108747676D01*
X130571429Y-108747676D02*
X130476191Y-108842914D01*
X130476191Y-108842914D02*
X130380953Y-108890533D01*
X172476190Y-97454819D02*
X172666666Y-97454819D01*
X172666666Y-97454819D02*
X172761904Y-97502438D01*
X172761904Y-97502438D02*
X172857142Y-97597676D01*
X172857142Y-97597676D02*
X172904761Y-97788152D01*
X172904761Y-97788152D02*
X172904761Y-98121485D01*
X172904761Y-98121485D02*
X172857142Y-98311961D01*
X172857142Y-98311961D02*
X172761904Y-98407200D01*
X172761904Y-98407200D02*
X172666666Y-98454819D01*
X172666666Y-98454819D02*
X172476190Y-98454819D01*
X172476190Y-98454819D02*
X172380952Y-98407200D01*
X172380952Y-98407200D02*
X172285714Y-98311961D01*
X172285714Y-98311961D02*
X172238095Y-98121485D01*
X172238095Y-98121485D02*
X172238095Y-97788152D01*
X172238095Y-97788152D02*
X172285714Y-97597676D01*
X172285714Y-97597676D02*
X172380952Y-97502438D01*
X172380952Y-97502438D02*
X172476190Y-97454819D01*
X173761904Y-97788152D02*
X173761904Y-98454819D01*
X173333333Y-97788152D02*
X173333333Y-98311961D01*
X173333333Y-98311961D02*
X173380952Y-98407200D01*
X173380952Y-98407200D02*
X173476190Y-98454819D01*
X173476190Y-98454819D02*
X173619047Y-98454819D01*
X173619047Y-98454819D02*
X173714285Y-98407200D01*
X173714285Y-98407200D02*
X173761904Y-98359580D01*
X174095238Y-97788152D02*
X174476190Y-97788152D01*
X174238095Y-97454819D02*
X174238095Y-98311961D01*
X174238095Y-98311961D02*
X174285714Y-98407200D01*
X174285714Y-98407200D02*
X174380952Y-98454819D01*
X174380952Y-98454819D02*
X174476190Y-98454819D01*
X174809524Y-97788152D02*
X174809524Y-98788152D01*
X174809524Y-97835771D02*
X174904762Y-97788152D01*
X174904762Y-97788152D02*
X175095238Y-97788152D01*
X175095238Y-97788152D02*
X175190476Y-97835771D01*
X175190476Y-97835771D02*
X175238095Y-97883390D01*
X175238095Y-97883390D02*
X175285714Y-97978628D01*
X175285714Y-97978628D02*
X175285714Y-98264342D01*
X175285714Y-98264342D02*
X175238095Y-98359580D01*
X175238095Y-98359580D02*
X175190476Y-98407200D01*
X175190476Y-98407200D02*
X175095238Y-98454819D01*
X175095238Y-98454819D02*
X174904762Y-98454819D01*
X174904762Y-98454819D02*
X174809524Y-98407200D01*
X176142857Y-97788152D02*
X176142857Y-98454819D01*
X175714286Y-97788152D02*
X175714286Y-98311961D01*
X175714286Y-98311961D02*
X175761905Y-98407200D01*
X175761905Y-98407200D02*
X175857143Y-98454819D01*
X175857143Y-98454819D02*
X176000000Y-98454819D01*
X176000000Y-98454819D02*
X176095238Y-98407200D01*
X176095238Y-98407200D02*
X176142857Y-98359580D01*
X176476191Y-97788152D02*
X176857143Y-97788152D01*
X176619048Y-97454819D02*
X176619048Y-98311961D01*
X176619048Y-98311961D02*
X176666667Y-98407200D01*
X176666667Y-98407200D02*
X176761905Y-98454819D01*
X176761905Y-98454819D02*
X176857143Y-98454819D01*
X172357143Y-105454819D02*
X172357143Y-104454819D01*
X172833333Y-104788152D02*
X172833333Y-105454819D01*
X172833333Y-104883390D02*
X172880952Y-104835771D01*
X172880952Y-104835771D02*
X172976190Y-104788152D01*
X172976190Y-104788152D02*
X173119047Y-104788152D01*
X173119047Y-104788152D02*
X173214285Y-104835771D01*
X173214285Y-104835771D02*
X173261904Y-104931009D01*
X173261904Y-104931009D02*
X173261904Y-105454819D01*
X173738095Y-104788152D02*
X173738095Y-105788152D01*
X173738095Y-104835771D02*
X173833333Y-104788152D01*
X173833333Y-104788152D02*
X174023809Y-104788152D01*
X174023809Y-104788152D02*
X174119047Y-104835771D01*
X174119047Y-104835771D02*
X174166666Y-104883390D01*
X174166666Y-104883390D02*
X174214285Y-104978628D01*
X174214285Y-104978628D02*
X174214285Y-105264342D01*
X174214285Y-105264342D02*
X174166666Y-105359580D01*
X174166666Y-105359580D02*
X174119047Y-105407200D01*
X174119047Y-105407200D02*
X174023809Y-105454819D01*
X174023809Y-105454819D02*
X173833333Y-105454819D01*
X173833333Y-105454819D02*
X173738095Y-105407200D01*
X175071428Y-104788152D02*
X175071428Y-105454819D01*
X174642857Y-104788152D02*
X174642857Y-105311961D01*
X174642857Y-105311961D02*
X174690476Y-105407200D01*
X174690476Y-105407200D02*
X174785714Y-105454819D01*
X174785714Y-105454819D02*
X174928571Y-105454819D01*
X174928571Y-105454819D02*
X175023809Y-105407200D01*
X175023809Y-105407200D02*
X175071428Y-105359580D01*
X175404762Y-104788152D02*
X175785714Y-104788152D01*
X175547619Y-104454819D02*
X175547619Y-105311961D01*
X175547619Y-105311961D02*
X175595238Y-105407200D01*
X175595238Y-105407200D02*
X175690476Y-105454819D01*
X175690476Y-105454819D02*
X175785714Y-105454819D01*
X158683333Y-90454819D02*
X158350000Y-89978628D01*
X158111905Y-90454819D02*
X158111905Y-89454819D01*
X158111905Y-89454819D02*
X158492857Y-89454819D01*
X158492857Y-89454819D02*
X158588095Y-89502438D01*
X158588095Y-89502438D02*
X158635714Y-89550057D01*
X158635714Y-89550057D02*
X158683333Y-89645295D01*
X158683333Y-89645295D02*
X158683333Y-89788152D01*
X158683333Y-89788152D02*
X158635714Y-89883390D01*
X158635714Y-89883390D02*
X158588095Y-89931009D01*
X158588095Y-89931009D02*
X158492857Y-89978628D01*
X158492857Y-89978628D02*
X158111905Y-89978628D01*
X159064286Y-89550057D02*
X159111905Y-89502438D01*
X159111905Y-89502438D02*
X159207143Y-89454819D01*
X159207143Y-89454819D02*
X159445238Y-89454819D01*
X159445238Y-89454819D02*
X159540476Y-89502438D01*
X159540476Y-89502438D02*
X159588095Y-89550057D01*
X159588095Y-89550057D02*
X159635714Y-89645295D01*
X159635714Y-89645295D02*
X159635714Y-89740533D01*
X159635714Y-89740533D02*
X159588095Y-89883390D01*
X159588095Y-89883390D02*
X159016667Y-90454819D01*
X159016667Y-90454819D02*
X159635714Y-90454819D01*
X148862142Y-95648152D02*
X148862142Y-96314819D01*
X148433571Y-95648152D02*
X148433571Y-96171961D01*
X148433571Y-96171961D02*
X148481190Y-96267200D01*
X148481190Y-96267200D02*
X148576428Y-96314819D01*
X148576428Y-96314819D02*
X148719285Y-96314819D01*
X148719285Y-96314819D02*
X148814523Y-96267200D01*
X148814523Y-96267200D02*
X148862142Y-96219580D01*
X149290714Y-96029104D02*
X149766904Y-96029104D01*
X149195476Y-96314819D02*
X149528809Y-95314819D01*
X149528809Y-95314819D02*
X149862142Y-96314819D01*
X150100238Y-95314819D02*
X150766904Y-95314819D01*
X150766904Y-95314819D02*
X150338333Y-96314819D01*
X151576428Y-95648152D02*
X151576428Y-96314819D01*
X151338333Y-95267200D02*
X151100238Y-95981485D01*
X151100238Y-95981485D02*
X151719285Y-95981485D01*
X152624047Y-96314819D02*
X152052619Y-96314819D01*
X152338333Y-96314819D02*
X152338333Y-95314819D01*
X152338333Y-95314819D02*
X152243095Y-95457676D01*
X152243095Y-95457676D02*
X152147857Y-95552914D01*
X152147857Y-95552914D02*
X152052619Y-95600533D01*
X137859580Y-101666666D02*
X137907200Y-101714285D01*
X137907200Y-101714285D02*
X137954819Y-101857142D01*
X137954819Y-101857142D02*
X137954819Y-101952380D01*
X137954819Y-101952380D02*
X137907200Y-102095237D01*
X137907200Y-102095237D02*
X137811961Y-102190475D01*
X137811961Y-102190475D02*
X137716723Y-102238094D01*
X137716723Y-102238094D02*
X137526247Y-102285713D01*
X137526247Y-102285713D02*
X137383390Y-102285713D01*
X137383390Y-102285713D02*
X137192914Y-102238094D01*
X137192914Y-102238094D02*
X137097676Y-102190475D01*
X137097676Y-102190475D02*
X137002438Y-102095237D01*
X137002438Y-102095237D02*
X136954819Y-101952380D01*
X136954819Y-101952380D02*
X136954819Y-101857142D01*
X136954819Y-101857142D02*
X137002438Y-101714285D01*
X137002438Y-101714285D02*
X137050057Y-101666666D01*
X137954819Y-100714285D02*
X137954819Y-101285713D01*
X137954819Y-100999999D02*
X136954819Y-100999999D01*
X136954819Y-100999999D02*
X137097676Y-101095237D01*
X137097676Y-101095237D02*
X137192914Y-101190475D01*
X137192914Y-101190475D02*
X137240533Y-101285713D01*
X158683333Y-111454819D02*
X158350000Y-110978628D01*
X158111905Y-111454819D02*
X158111905Y-110454819D01*
X158111905Y-110454819D02*
X158492857Y-110454819D01*
X158492857Y-110454819D02*
X158588095Y-110502438D01*
X158588095Y-110502438D02*
X158635714Y-110550057D01*
X158635714Y-110550057D02*
X158683333Y-110645295D01*
X158683333Y-110645295D02*
X158683333Y-110788152D01*
X158683333Y-110788152D02*
X158635714Y-110883390D01*
X158635714Y-110883390D02*
X158588095Y-110931009D01*
X158588095Y-110931009D02*
X158492857Y-110978628D01*
X158492857Y-110978628D02*
X158111905Y-110978628D01*
X159540476Y-110788152D02*
X159540476Y-111454819D01*
X159302381Y-110407200D02*
X159064286Y-111121485D01*
X159064286Y-111121485D02*
X159683333Y-111121485D01*
X139683333Y-90454819D02*
X139350000Y-89978628D01*
X139111905Y-90454819D02*
X139111905Y-89454819D01*
X139111905Y-89454819D02*
X139492857Y-89454819D01*
X139492857Y-89454819D02*
X139588095Y-89502438D01*
X139588095Y-89502438D02*
X139635714Y-89550057D01*
X139635714Y-89550057D02*
X139683333Y-89645295D01*
X139683333Y-89645295D02*
X139683333Y-89788152D01*
X139683333Y-89788152D02*
X139635714Y-89883390D01*
X139635714Y-89883390D02*
X139588095Y-89931009D01*
X139588095Y-89931009D02*
X139492857Y-89978628D01*
X139492857Y-89978628D02*
X139111905Y-89978628D01*
X140635714Y-90454819D02*
X140064286Y-90454819D01*
X140350000Y-90454819D02*
X140350000Y-89454819D01*
X140350000Y-89454819D02*
X140254762Y-89597676D01*
X140254762Y-89597676D02*
X140159524Y-89692914D01*
X140159524Y-89692914D02*
X140064286Y-89740533D01*
X139683333Y-111454819D02*
X139350000Y-110978628D01*
X139111905Y-111454819D02*
X139111905Y-110454819D01*
X139111905Y-110454819D02*
X139492857Y-110454819D01*
X139492857Y-110454819D02*
X139588095Y-110502438D01*
X139588095Y-110502438D02*
X139635714Y-110550057D01*
X139635714Y-110550057D02*
X139683333Y-110645295D01*
X139683333Y-110645295D02*
X139683333Y-110788152D01*
X139683333Y-110788152D02*
X139635714Y-110883390D01*
X139635714Y-110883390D02*
X139588095Y-110931009D01*
X139588095Y-110931009D02*
X139492857Y-110978628D01*
X139492857Y-110978628D02*
X139111905Y-110978628D01*
X140016667Y-110454819D02*
X140635714Y-110454819D01*
X140635714Y-110454819D02*
X140302381Y-110835771D01*
X140302381Y-110835771D02*
X140445238Y-110835771D01*
X140445238Y-110835771D02*
X140540476Y-110883390D01*
X140540476Y-110883390D02*
X140588095Y-110931009D01*
X140588095Y-110931009D02*
X140635714Y-111026247D01*
X140635714Y-111026247D02*
X140635714Y-111264342D01*
X140635714Y-111264342D02*
X140588095Y-111359580D01*
X140588095Y-111359580D02*
X140540476Y-111407200D01*
X140540476Y-111407200D02*
X140445238Y-111454819D01*
X140445238Y-111454819D02*
X140159524Y-111454819D01*
X140159524Y-111454819D02*
X140064286Y-111407200D01*
X140064286Y-111407200D02*
X140016667Y-111359580D01*
D12*
X150500000Y-94610000D02*
X148390000Y-94610000D01*
X148390000Y-92390000D02*
X148390000Y-94610000D01*
X150500000Y-92390000D02*
X150500000Y-94610000D01*
X150500000Y-92390000D02*
X148390000Y-92390000D01*
X151500000Y-92390000D02*
X152610000Y-92390000D01*
X152610000Y-92390000D02*
X152610000Y-93500000D01*
X169390000Y-96890000D02*
X170500000Y-96890000D01*
X169390000Y-98000000D02*
X169390000Y-96890000D01*
X169390000Y-99000000D02*
X169390000Y-101110000D01*
X169390000Y-99000000D02*
X171610000Y-99000000D01*
X169390000Y-101110000D02*
X171610000Y-101110000D01*
X171610000Y-99000000D02*
X171610000Y-101110000D01*
X169390000Y-101890000D02*
X170500000Y-101890000D01*
X169390000Y-103000000D02*
X169390000Y-101890000D01*
X169390000Y-104000000D02*
X169390000Y-106110000D01*
X169390000Y-104000000D02*
X171610000Y-104000000D01*
X169390000Y-106110000D02*
X171610000Y-106110000D01*
X171610000Y-104000000D02*
X171610000Y-106110000D01*
X153540000Y-90000000D02*
X154230000Y-90000000D01*
X164160000Y-90000000D02*
X163470000Y-90000000D01*
X163470000Y-91720000D02*
X154230000Y-91720000D01*
X154230000Y-88280000D01*
X163470000Y-88280000D01*
X163470000Y-91720000D01*
X159880000Y-97630000D02*
X165120000Y-97630000D01*
X159880000Y-105370000D02*
X159880000Y-97630000D01*
X165120000Y-97630000D02*
X165120000Y-105370000D01*
X165120000Y-105370000D02*
X159880000Y-105370000D01*
X147855000Y-96860000D02*
X147855000Y-107140000D01*
X147855000Y-107140000D02*
X153155000Y-107140000D01*
X149505000Y-96860000D02*
X147855000Y-96860000D01*
X153155000Y-96860000D02*
X151505000Y-96860000D01*
X153155000Y-107140000D02*
X153155000Y-96860000D01*
X151505000Y-96860000D02*
G75*
G02*
X149505000Y-96860000I-1000000J0D01*
G01*
X134880000Y-97630000D02*
X140120000Y-97630000D01*
X134880000Y-105370000D02*
X134880000Y-97630000D01*
X140120000Y-97630000D02*
X140120000Y-105370000D01*
X140120000Y-105370000D02*
X134880000Y-105370000D01*
X153540000Y-111000000D02*
X154230000Y-111000000D01*
X164160000Y-111000000D02*
X163470000Y-111000000D01*
X154230000Y-109280000D02*
X163470000Y-109280000D01*
X163470000Y-112720000D01*
X154230000Y-112720000D01*
X154230000Y-109280000D01*
X134540000Y-90000000D02*
X135230000Y-90000000D01*
X145160000Y-90000000D02*
X144470000Y-90000000D01*
X144470000Y-91720000D02*
X135230000Y-91720000D01*
X135230000Y-88280000D01*
X144470000Y-88280000D01*
X144470000Y-91720000D01*
X134540000Y-111000000D02*
X135230000Y-111000000D01*
X145160000Y-111000000D02*
X144470000Y-111000000D01*
X135230000Y-109280000D02*
X144470000Y-109280000D01*
X144470000Y-112720000D01*
X135230000Y-112720000D01*
X135230000Y-109280000D01*
%LPC*%
D13*
X149500000Y-93500000D03*
D14*
X151500000Y-93500000D03*
D15*
X128500000Y-89000000D03*
D16*
X128500000Y-89000000D03*
D15*
X174500000Y-89000000D03*
D16*
X174500000Y-89000000D03*
D15*
X174500000Y-112000000D03*
D16*
X174500000Y-112000000D03*
D15*
X128500000Y-112000000D03*
D16*
X128500000Y-112000000D03*
D14*
X170500000Y-98000000D03*
D13*
X170500000Y-100000000D03*
D14*
X170500000Y-103000000D03*
D13*
X170500000Y-105000000D03*
D17*
X165200000Y-90000000D03*
X152500000Y-90000000D03*
D18*
X162500000Y-104000000D03*
X162500000Y-99000000D03*
D19*
X146695000Y-98190000D03*
D17*
X146695000Y-100730000D03*
X146695000Y-103270000D03*
X146695000Y-105810000D03*
X154315000Y-105810000D03*
X154315000Y-103270000D03*
X154315000Y-100730000D03*
X154315000Y-98190000D03*
D18*
X137500000Y-104000000D03*
X137500000Y-99000000D03*
D17*
X152500000Y-111000000D03*
X165200000Y-111000000D03*
X146200000Y-90000000D03*
X133500000Y-90000000D03*
X133500000Y-111000000D03*
X146200000Y-111000000D03*
%LPD*%
M02*
